<svg width="48" height="48" viewBox="0 0 48 48" fill="none" xmlns="http://www.w3.org/2000/svg">
<path d="M42.2468 12.4494H37.1772V7.37975C37.1772 6.48338 36.8211 5.62373 36.1873 4.9899C35.5535 4.35608 34.6938 4 33.7975 4H13.519C12.6226 4 11.763 4.35608 11.1291 4.9899C10.4953 5.62373 10.1392 6.48338 10.1392 7.37975V12.4494H5.06962C3.72507 12.4494 2.4356 12.9835 1.48486 13.9342C0.534119 14.885 0 16.1744 0 17.519V41.1772C0 42.0736 0.356079 42.9332 0.989905 43.5671C1.62373 44.2009 2.48338 44.557 3.37975 44.557H43.9367C44.8331 44.557 45.6927 44.2009 46.3265 43.5671C46.9604 42.9332 47.3165 42.0736 47.3165 41.1772V17.519C47.3165 16.1744 46.7823 14.885 45.8316 13.9342C44.8809 12.9835 43.5914 12.4494 42.2468 12.4494ZM13.519 7.37975H33.7975V12.4494H13.519V7.37975ZM43.9367 41.1772H3.37975V25.9684H16.8987V34.4177H30.4177V25.9684H43.9367V41.1772ZM20.2785 25.9684H27.038V31.038H20.2785V25.9684ZM3.37975 22.5886V17.519C3.37975 17.0708 3.55779 16.641 3.8747 16.3241C4.19161 16.0072 4.62144 15.8291 5.06962 15.8291H42.2468C42.695 15.8291 43.1248 16.0072 43.4418 16.3241C43.7587 16.641 43.9367 17.0708 43.9367 17.519V22.5886H3.37975Z" fill="#00A0C1"/>
</svg>
